<svg width="143" height="143" viewBox="0 0 143 143" fill="none" xmlns="http://www.w3.org/2000/svg">
<circle cx="71.5" cy="71.5001" r="70.9438" transform="rotate(-2.1035 71.5 71.5001)" fill="#ECF8FF"/>
<g clip-path="url(#clip0_82_262)">
<path d="M92.7346 106.086C92.3602 105.933 91.9539 105.844 91.5237 105.844C91.0935 105.844 90.6872 105.933 90.3128 106.086C89.9384 106.247 89.5958 106.472 89.317 106.762L89.2931 106.779C89.1338 106.94 88.9824 107.125 88.8629 107.326C88.7992 107.431 88.7354 107.544 88.6797 107.665H83.6528V103.25C82.8801 103.612 82.0755 103.886 81.2549 104.055C81.1115 104.088 80.9761 104.112 80.8327 104.136V109.083C80.8327 109.478 80.992 109.832 81.247 110.09C81.5019 110.348 81.8524 110.509 82.2428 110.509H88.7275C88.7753 110.605 88.831 110.702 88.8948 110.799C89.0063 110.968 89.1338 111.129 89.2772 111.274L89.301 111.298C89.5878 111.588 89.9384 111.83 90.3287 111.991C90.7031 112.144 91.1094 112.233 91.5396 112.233C91.9539 112.233 92.3602 112.152 92.7266 111.999L92.7505 111.991C93.1409 111.83 93.4834 111.588 93.7782 111.298C94.065 111.008 94.304 110.654 94.4633 110.259C94.6147 109.88 94.7023 109.469 94.7023 109.034C94.7023 108.607 94.6147 108.197 94.4633 107.81C94.304 107.415 94.065 107.061 93.7782 106.771C93.4755 106.489 93.1249 106.247 92.7346 106.086ZM69.7514 75.8733H63.8562L63.0117 78.677H57.7061L64.0394 61.6614H69.7275L76.0369 78.677H70.5958L69.7514 75.8733ZM68.652 72.1833L66.8117 66.0684L64.9635 72.1833H68.652ZM77.5027 61.6533H82.7208V78.6689H77.5027V61.6533ZM73.5275 44.2107C72.6671 44.8391 71.8704 45.6851 71.1774 46.7808C71.1455 46.8372 71.0977 46.8855 71.0419 46.9177C70.8268 47.0547 70.54 46.9902 70.4046 46.7808C69.7115 45.6851 68.9149 44.8391 68.0545 44.2107C67.1304 43.5339 66.1346 43.1069 65.1069 42.8975H65.091C64.0872 42.688 63.0595 42.688 62.0717 42.8652C61.0281 43.0505 60.0164 43.4373 59.1082 43.969C58.208 44.5007 57.3954 45.1855 56.7182 45.9751C56.065 46.7405 55.5392 47.6187 55.1966 48.5613C55.1409 48.7063 55.0931 48.8594 55.0453 49.0205C55.0055 49.1655 54.9577 49.3267 54.9258 49.4878C54.886 49.6973 54.7107 49.8503 54.4876 49.8584C53.4201 50.0195 52.3606 50.4143 51.3727 51.0024C50.369 51.6067 49.4369 52.4285 48.6323 53.4114C47.8356 54.3943 47.1665 55.5544 46.6885 56.8435C46.2423 58.052 45.9715 59.3813 45.9157 60.7913C45.9078 60.9766 45.9078 61.1538 45.9078 61.3391C45.9078 61.5083 45.9157 61.6855 45.9157 61.8708C45.9237 62.0239 45.86 62.1851 45.7245 62.2817C45.0713 62.7571 44.4818 63.2485 43.956 63.7561C43.4222 64.2798 42.9522 64.8196 42.5459 65.3755C41.8847 66.2859 41.3987 67.2366 41.0721 68.1953C40.7296 69.1943 40.5623 70.2175 40.5463 71.2246C40.5384 72.1914 40.6658 73.1501 40.9367 74.0767C41.2075 75.0193 41.6218 75.9377 42.1556 76.7917C42.4583 77.2832 42.8008 77.7666 43.1753 78.2178C43.5577 78.677 43.9719 79.1121 44.418 79.5229C44.5296 79.6277 44.5933 79.7969 44.5614 79.958C44.434 80.5703 44.3702 81.1746 44.3463 81.7708C44.3304 82.3831 44.3623 82.9873 44.4419 83.5754C44.5933 84.655 44.904 85.6863 45.3421 86.637C45.8042 87.6521 46.4096 88.5786 47.1107 89.3923C47.7878 90.1899 48.5606 90.8828 49.3891 91.4548C50.2256 92.0349 51.1099 92.4861 52.018 92.8003C52.4243 92.9373 52.8386 93.05 53.2608 93.1306C53.6591 93.2112 54.0574 93.2595 54.4478 93.2756C54.6629 93.2676 54.8621 93.4207 54.9099 93.6462C55.117 94.605 55.4994 95.5073 56.0252 96.321C56.5748 97.175 57.2679 97.9324 58.0646 98.5608C59.0683 99.3503 60.2474 99.9465 61.4901 100.261C62.6612 100.559 63.896 100.615 65.1069 100.357C66.1904 100.132 67.2419 99.6646 68.2138 98.9233C69.1061 98.2385 69.9346 97.3201 70.6277 96.1277C70.6675 96.0552 70.7312 95.9988 70.8109 95.9585C71.034 95.8376 71.3128 95.9263 71.4323 96.1519C72.0059 97.2314 72.7069 98.0935 73.4876 98.7461C74.3321 99.447 75.2642 99.9224 76.244 100.196C77.4948 100.543 78.8013 100.543 80.0679 100.277C81.4222 99.9949 82.7287 99.3987 83.852 98.5769C84.7363 97.9404 85.517 97.1589 86.1384 96.2727C86.7279 95.4429 87.166 94.5164 87.421 93.5415C87.4528 93.3562 87.5962 93.1951 87.7954 93.1628C88.9665 92.9534 90.1216 92.4619 91.1811 91.7288C92.2407 90.9956 93.2046 90.0288 93.9933 88.8767C94.7182 87.8132 95.2998 86.5886 95.6742 85.2512C96.0247 84.0024 96.192 82.6489 96.1363 81.2229C96.1203 81.0618 96.192 80.9006 96.3354 80.804C97.0205 80.3286 97.626 79.8291 98.1677 79.3215C98.7174 78.7898 99.2034 78.2419 99.6176 77.6699C100.255 76.7998 100.725 75.8975 101.052 74.9709C101.386 74.0122 101.561 73.0374 101.593 72.0625C101.617 71.1199 101.506 70.1853 101.267 69.2668C101.028 68.3403 100.653 67.446 100.167 66.6001L100.151 66.584C99.8327 66.0281 99.4583 65.4963 99.044 64.9807C98.6298 64.4651 98.1597 63.9817 97.6579 63.5225C97.5384 63.4177 97.4746 63.2485 97.5065 63.0793C97.618 62.5234 97.6897 61.9675 97.7136 61.4197C97.7375 60.8638 97.7216 60.3159 97.6658 59.7761C97.5463 58.6562 97.2516 57.5928 96.8214 56.6018C96.3673 55.5544 95.7618 54.5876 95.0528 53.7417C94.3677 52.9199 93.579 52.2029 92.7346 51.6067C91.8901 51.0105 90.9899 50.5432 90.0738 50.229L90.0499 50.2209C89.5639 50.0518 89.07 49.9309 88.5841 49.8503H88.5681C88.0901 49.7698 87.6122 49.7375 87.1421 49.7456C86.927 49.7617 86.7199 49.6167 86.6642 49.3911C86.5845 49.0608 86.4809 48.7385 86.3614 48.4243C86.234 48.1021 86.0906 47.7878 85.9233 47.4736C85.4931 46.668 84.9275 45.9268 84.2662 45.2903C83.5891 44.6377 82.8164 44.0818 81.9878 43.6548C81.1354 43.2197 80.2034 42.9136 79.2474 42.7766C78.3392 42.6477 77.4071 42.6638 76.491 42.8572C75.4633 43.1069 74.4516 43.5339 73.5275 44.2107ZM86.5526 53.2825C86.6084 53.1052 86.7677 52.9683 86.9669 52.9521C87.3015 52.928 87.644 52.9441 87.9866 53.0005C88.3371 53.0569 88.6876 53.1455 89.0382 53.2664C89.6994 53.4919 90.3606 53.8384 90.974 54.2734C91.5795 54.7004 92.153 55.2241 92.647 55.8203L92.6549 55.8364C93.1727 56.4568 93.6109 57.1497 93.9375 57.907C94.2482 58.616 94.4553 59.3733 94.543 60.1709C94.5987 60.7026 94.5987 61.2585 94.535 61.8225C94.4792 62.3462 94.3597 62.886 94.1765 63.4258L94.1686 63.458C94.057 63.7964 94.065 64.1509 94.1686 64.4651C94.2801 64.7874 94.4872 65.0774 94.782 65.2708L94.8059 65.2869C95.3635 65.7058 95.8574 66.165 96.2876 66.6484C96.7337 67.1399 97.1161 67.6716 97.4348 68.2195C97.7853 68.8237 98.0562 69.4521 98.2235 70.0967C98.3987 70.7332 98.4784 71.3777 98.4545 72.0142C98.4386 72.6748 98.3111 73.3354 98.0801 73.988C97.857 74.6084 97.5304 75.2207 97.1002 75.8169L97.0922 75.825C96.7019 76.3647 96.208 76.8965 95.6264 77.4041C95.0688 77.8875 94.4235 78.3467 93.6826 78.7898L93.6587 78.8059C93.3639 78.9751 93.1488 79.2329 93.0214 79.531C92.8939 79.8291 92.8541 80.1594 92.9178 80.4817L92.9258 80.5461C93.0771 81.7788 93.0054 82.9551 92.7585 84.0266C92.4876 85.1948 92.0176 86.2422 91.4042 87.1365C90.9342 87.8213 90.3925 88.4094 89.8109 88.8767C89.2134 89.3601 88.5681 89.7146 87.9069 89.9321H87.899C87.66 90.0046 87.3971 89.8677 87.3254 89.626C86.4252 86.6531 84.8717 85.6943 82.2428 84.3247L82.187 84.2925C81.8205 84.1152 81.4222 84.0991 81.0637 84.2119C80.7052 84.3247 80.3945 84.5745 80.2113 84.937L80.1874 84.9854C80.0122 85.356 79.9962 85.7588 80.1078 86.1213C80.2273 86.4839 80.4822 86.8062 80.8486 86.9995C83.0474 88.1355 84.6725 88.9976 84.6486 91.7852C84.6407 92.615 84.3857 93.4207 83.9556 94.1458C83.5015 94.9111 82.8482 95.5959 82.0914 96.1519C81.3187 96.7158 80.4503 97.1267 79.5581 97.3281C78.7057 97.5295 77.8293 97.5376 77.0088 97.312C75.6226 96.9253 74.7224 95.9907 74.117 94.8547C73.5434 93.7751 73.2247 92.5183 72.9937 91.3743C72.9778 91.334 72.9778 91.2856 72.9778 91.2454C72.9778 90.6653 72.5317 90.2866 71.9501 90.1174C71.6952 90.0369 71.4164 90.0046 71.1455 90.0046C70.8667 90.0046 70.5958 90.0449 70.3409 90.1174C69.7673 90.2947 69.3212 90.6733 69.3212 91.2454C69.3212 91.2856 69.3132 91.3179 69.3052 91.3582C68.8591 93.1467 68.2138 94.4922 67.457 95.459C66.5727 96.595 65.5371 97.2153 64.4696 97.4409C63.6889 97.6021 62.8843 97.5618 62.1195 97.3604C61.3149 97.1428 60.5501 96.748 59.8809 96.2324C59.2197 95.7087 58.67 95.0723 58.2876 94.3552C57.9212 93.6704 57.7061 92.9131 57.7061 92.1396C57.7061 89.207 59.4587 88.2241 61.7769 87.0237C62.1434 86.8303 62.3983 86.5081 62.5178 86.1455C62.6373 85.7749 62.6134 85.364 62.4302 84.9854C62.239 84.6147 61.9203 84.3569 61.5618 84.2361C61.2034 84.1233 60.805 84.1394 60.4386 84.3166L60.4147 84.3247C57.6822 85.7346 56.0491 86.7659 55.0692 89.8354C55.0134 90.0369 54.8222 90.1899 54.6071 90.1819C54.3363 90.1738 54.0654 90.1416 53.7866 90.0852C53.5157 90.0288 53.2449 89.9563 52.9899 89.8596C52.3447 89.634 51.6994 89.3037 51.0939 88.8848C50.4964 88.4658 49.9388 87.9663 49.4449 87.3862C48.935 86.79 48.4969 86.1213 48.1623 85.3882C47.8436 84.7034 47.6205 83.9702 47.509 83.2048V83.1887C47.4293 82.6248 47.4134 82.0366 47.4771 81.4324C47.5329 80.8684 47.6524 80.2803 47.8516 79.7002L47.8595 79.676C47.9711 79.3457 47.9631 78.9993 47.8675 78.6931L47.8595 78.677C47.756 78.3547 47.5488 78.0728 47.2621 77.8713L47.2461 77.8552C46.7363 77.4685 46.2742 77.0576 45.8679 76.6064C45.4537 76.1553 45.0872 75.6719 44.7845 75.1724C44.418 74.5681 44.1312 73.9236 43.94 73.2629C43.7568 72.6184 43.6612 71.9578 43.6692 71.281C43.6771 70.5962 43.7966 69.8953 44.0356 69.2104C44.2667 68.5579 44.6013 67.9053 45.0633 67.2688C45.4537 66.729 45.9317 66.1973 46.5052 65.6897C47.0549 65.1982 47.6763 64.731 48.3933 64.2878C48.6562 64.1267 48.8474 63.9011 48.9748 63.6433L48.9828 63.6191C49.1103 63.3533 49.1581 63.0552 49.1182 62.7571C49.1103 62.7249 49.1103 62.6926 49.1103 62.6604V62.6443C49.0704 62.3623 49.0465 62.0803 49.0306 61.8064C49.0147 61.5083 49.0147 61.2102 49.0226 60.9202C49.0625 59.8647 49.2616 58.8738 49.5883 57.9795C49.9388 57.0208 50.4327 56.1587 51.0222 55.4255C51.5082 54.8213 52.0658 54.3137 52.6474 53.9189C53.2289 53.5242 53.8423 53.2422 54.4717 53.0811C54.7107 53.0085 54.9736 53.1455 55.0453 53.3872C55.5392 54.9663 56.1606 55.9573 57.3476 57.0771L57.3954 57.1174C57.6901 57.3914 58.0725 57.5203 58.447 57.5042C58.8214 57.488 59.1878 57.335 59.4587 57.0369L59.4826 57.0046C59.7535 56.7065 59.8809 56.3198 59.865 55.9412C59.8491 55.5625 59.6897 55.1838 59.387 54.8938C58.431 53.9995 58.2159 53.4436 57.9291 52.5413C57.5946 51.502 57.6503 50.4868 57.9769 49.5845C58.2 48.9641 58.5505 48.384 58.9966 47.8765C59.4348 47.3689 59.9686 46.9177 60.5581 46.5713L60.582 46.5552C61.1874 46.2007 61.8407 45.9429 62.5178 45.814C63.1631 45.6931 63.8243 45.6851 64.4696 45.822C65.3778 46.0154 66.27 46.4988 67.0587 47.3367C67.7518 48.0698 68.3652 49.085 68.8512 50.4224L68.8591 50.4385C69.0264 50.9622 69.5681 51.2683 70.2055 51.3892C70.4922 51.4456 70.795 51.4617 71.0897 51.4456H71.0977C71.4004 51.4294 71.6872 51.373 71.9581 51.2844C72.4361 51.1233 72.8105 50.8655 72.8981 50.5352V50.3499C72.8981 49.4153 73.4478 48.4243 74.2046 47.6106C75.0331 46.7244 76.1405 46.0234 77.0725 45.8301C77.6621 45.7092 78.2595 45.7012 78.8411 45.7898C79.4465 45.8865 80.0361 46.0798 80.5937 46.3618L80.6415 46.3779C81.2071 46.668 81.7249 47.0386 82.179 47.4736C82.6252 47.9087 83.0075 48.4001 83.2943 48.9399C83.7484 49.7859 83.9556 50.7527 83.8122 51.7759C83.6847 52.6702 83.6528 53.2341 82.9119 54.1284L82.904 54.1365C82.6411 54.4507 82.5296 54.8455 82.5614 55.2322C82.5933 55.6028 82.7606 55.9653 83.0553 56.2231L83.1031 56.2634C83.4138 56.5212 83.7962 56.626 84.1707 56.5938C84.5371 56.5615 84.8956 56.3923 85.1505 56.0942L85.1904 56.0378C85.9551 55.1194 86.2021 54.4426 86.5526 53.2825ZM104.047 92.7117C103.896 92.333 103.808 91.9221 103.808 91.4871C103.808 91.052 103.896 90.6411 104.047 90.2625C104.206 89.8838 104.429 89.5374 104.716 89.2554L104.732 89.2312C104.891 89.0701 105.075 88.917 105.274 88.7961C105.377 88.7317 105.489 88.6672 105.608 88.6108V83.5271H99.4264C99.4344 83.1968 99.4344 82.8665 99.4184 82.5281C99.4025 82.3428 99.4822 82.1575 99.6415 82.0527C100.279 81.6096 100.86 81.1504 101.386 80.675H107.01C107.401 80.675 107.751 80.8362 108.006 81.094C108.261 81.3518 108.421 81.7063 108.421 82.1011V88.6592C108.516 88.7075 108.612 88.7639 108.707 88.8284C108.875 88.9412 109.034 89.0701 109.177 89.2151L109.201 89.2393C109.488 89.5293 109.727 89.8838 109.886 90.2786C110.038 90.6572 110.125 91.0681 110.125 91.5032C110.125 91.9221 110.046 92.325 109.894 92.7036L109.886 92.7278C109.727 93.1226 109.488 93.469 109.201 93.7671C108.914 94.0571 108.564 94.2988 108.174 94.46C107.799 94.613 107.393 94.7017 106.963 94.7017C106.54 94.7017 106.134 94.613 105.752 94.46C105.361 94.2988 105.011 94.0571 104.724 93.7671C104.445 93.4609 104.206 93.1064 104.047 92.7117ZM113.001 76.397H104.597C104.74 76.0828 104.868 75.7686 104.979 75.4463C105.202 74.8179 105.361 74.1814 105.457 73.5449H113.001C113.057 73.4402 113.113 73.3354 113.177 73.2307C113.296 73.0374 113.439 72.8601 113.591 72.707C113.886 72.4089 114.228 72.1753 114.618 72.0142C114.993 71.8611 115.399 71.7725 115.829 71.7725C116.244 71.7725 116.642 71.853 117.016 72.0061L117.04 72.0142C117.431 72.1753 117.773 72.417 118.068 72.707C118.355 72.9971 118.594 73.3516 118.753 73.7463C118.904 74.125 118.992 74.5359 118.992 74.9709C118.992 75.3979 118.904 75.8088 118.753 76.1956C118.594 76.5903 118.355 76.9448 118.068 77.2349C117.781 77.5249 117.431 77.7666 117.04 77.9277C116.666 78.0808 116.26 78.1694 115.829 78.1694C115.415 78.1694 115.017 78.0889 114.642 77.9358L114.618 77.9277C114.228 77.7666 113.886 77.5249 113.591 77.2349C113.439 77.0818 113.304 76.9126 113.184 76.7273L113.169 76.7031C113.113 76.6064 113.057 76.5017 113.001 76.397ZM115.678 68.5981H105.106C104.836 67.6958 104.453 66.8176 103.975 65.9797L103.959 65.9556C103.92 65.8831 103.88 65.8186 103.84 65.7461H114.276V56.4407C114.196 56.3923 114.117 56.344 114.037 56.2876C113.878 56.1748 113.734 56.054 113.599 55.917C113.312 55.627 113.073 55.2725 112.914 54.8777C112.762 54.499 112.675 54.0881 112.675 53.6531C112.675 53.2261 112.762 52.8071 112.914 52.4285C113.073 52.0337 113.312 51.6873 113.599 51.3892C113.886 51.0991 114.236 50.8574 114.626 50.6963C115.001 50.5432 115.407 50.4546 115.837 50.4546C116.26 50.4546 116.666 50.5432 117.048 50.6963C117.439 50.8574 117.789 51.0991 118.076 51.3892C118.363 51.6792 118.602 52.0337 118.761 52.4285C118.912 52.8071 119 53.218 119 53.6531C119 54.072 118.92 54.4749 118.769 54.8535L118.761 54.8777C118.602 55.2725 118.363 55.6189 118.076 55.917C117.901 56.0942 117.693 56.2554 117.478 56.3923C117.359 56.4648 117.223 56.5374 117.096 56.5938V67.1641C117.096 67.5588 116.937 67.9133 116.682 68.1711C116.419 68.437 116.068 68.5981 115.678 68.5981ZM104.629 61.7178H101.028C101.123 61.186 101.179 60.6543 101.203 60.1226C101.219 59.6956 101.219 59.2766 101.195 58.8657H103.218V54.6602C103.107 54.6038 103.003 54.5474 102.9 54.4749C102.709 54.354 102.533 54.209 102.366 54.0398C102.079 53.7498 101.84 53.3953 101.681 53.0005C101.53 52.6218 101.442 52.2109 101.442 51.7839C101.442 51.3569 101.53 50.946 101.681 50.5593C101.84 50.1807 102.063 49.8342 102.342 49.5442L102.366 49.52C102.653 49.23 103.003 48.9883 103.394 48.8271C103.768 48.6741 104.174 48.5855 104.605 48.5855C105.035 48.5855 105.441 48.6741 105.816 48.8271C106.19 48.9883 106.532 49.2139 106.819 49.5039L106.843 49.52C107.13 49.8101 107.361 50.1484 107.52 50.5352L107.528 50.5593C107.68 50.938 107.767 51.3489 107.767 51.7839C107.767 52.2109 107.68 52.6299 107.528 53.0085C107.369 53.3872 107.146 53.7336 106.867 54.0237L106.843 54.0479C106.692 54.2009 106.525 54.3379 106.333 54.4668C106.238 54.5312 106.142 54.5876 106.039 54.636V60.2917C106.039 60.6865 105.879 61.041 105.624 61.2988C105.369 61.5566 105.011 61.7178 104.629 61.7178ZM48.7996 37.3303C49.174 37.4834 49.5803 37.572 50.0105 37.572C50.4407 37.572 50.847 37.4834 51.2214 37.3303C51.5958 37.1692 51.9384 36.9436 52.2172 36.6536L52.2411 36.6375C52.4004 36.4763 52.5518 36.291 52.6713 36.0896C52.735 35.9849 52.7987 35.8721 52.8545 35.7512H57.8813V40.1421C58.7656 39.6667 59.7216 39.3203 60.7015 39.1189V34.3252C60.7015 33.9304 60.5421 33.5759 60.2872 33.3181C60.0323 33.0603 59.6818 32.8992 59.2914 32.8992H52.8067C52.7589 32.8025 52.7031 32.7058 52.6394 32.6091C52.5279 32.4399 52.4004 32.2788 52.257 32.1338L52.2331 32.1096C51.9463 31.8196 51.5958 31.5779 51.2055 31.4167C50.831 31.2637 50.4247 31.175 49.9946 31.175C49.5803 31.175 49.174 31.2556 48.8075 31.4087L48.7836 31.4167C48.3933 31.5779 48.0507 31.8196 47.756 32.1096C47.4692 32.3997 47.2302 32.7542 47.0709 33.1489C46.9195 33.5276 46.8319 33.9385 46.8319 34.3735C46.8319 34.8005 46.9195 35.2114 47.0709 35.5981C47.2302 35.9929 47.4692 36.3474 47.756 36.6375C48.0667 36.9275 48.4092 37.1692 48.7996 37.3303ZM64.9396 28.2747V39.28C65.8797 39.554 66.7958 39.989 67.6562 40.6174L67.7518 40.6899C67.7518 40.6658 67.7598 40.6416 67.7598 40.6174V28.2747C67.8633 28.2183 67.9669 28.1619 68.0704 28.0974C68.2616 27.9766 68.4369 27.8315 68.5883 27.6785C68.8751 27.3804 69.114 27.0339 69.2734 26.6392C69.4247 26.2605 69.5124 25.8496 69.5124 25.4146C69.5124 24.9956 69.4327 24.5928 69.2813 24.2141L69.2734 24.1899C69.114 23.7952 68.8751 23.4487 68.5883 23.1506C68.3015 22.8606 67.9509 22.6189 67.5606 22.4578C67.1862 22.3047 66.7799 22.2161 66.3497 22.2161C65.9275 22.2161 65.5212 22.3047 65.1388 22.4578C64.7484 22.6189 64.3979 22.8606 64.1111 23.1506C63.8243 23.4407 63.5853 23.7952 63.426 24.1899C63.2746 24.5686 63.187 24.9795 63.187 25.4146C63.187 25.8335 63.2667 26.2363 63.418 26.615L63.426 26.6392C63.5853 27.0339 63.8243 27.3804 64.1111 27.6785C64.2625 27.8315 64.4298 27.9685 64.613 28.0894L64.6289 28.0974C64.7325 28.1619 64.8281 28.2183 64.9396 28.2747ZM72.6432 25.5676V41.6648C73.0256 41.27 73.4319 40.9236 73.8461 40.6174C74.3639 40.2388 74.9057 39.9246 75.4633 39.6829V26.9856H84.6646C84.7124 27.0662 84.7602 27.1467 84.8159 27.2273C84.9275 27.3884 85.047 27.5334 85.1824 27.6704C85.4692 27.9604 85.8197 28.2021 86.2101 28.3633C86.5845 28.5164 86.9908 28.605 87.421 28.605C87.8432 28.605 88.2574 28.5164 88.6319 28.3633C89.0222 28.2021 89.3727 27.9604 89.6595 27.6704C89.9463 27.3804 90.1853 27.0259 90.3447 26.6311C90.496 26.2524 90.5836 25.8416 90.5836 25.4065C90.5836 24.9795 90.496 24.5686 90.3447 24.1819C90.1853 23.7871 89.9463 23.4326 89.6595 23.1426C89.3568 22.8525 89.0063 22.6108 88.6159 22.4497C88.2415 22.2966 87.8352 22.208 87.413 22.208C86.9987 22.208 86.6004 22.2886 86.226 22.4417L86.2021 22.4497C85.8117 22.6108 85.4692 22.8525 85.1744 23.1426C84.9992 23.3198 84.8398 23.5293 84.7044 23.7468C84.6327 23.8677 84.561 24.0046 84.5052 24.1335H74.0532C73.6629 24.1335 73.3124 24.2947 73.0574 24.5525C72.8025 24.8184 72.6432 25.1729 72.6432 25.5676ZM79.4465 36.7422V38.9497C79.7333 38.9658 80.0281 38.99 80.3149 39.0383C80.9841 39.135 81.6373 39.3042 82.2667 39.5378V38.1763H86.4252C86.4809 38.2891 86.5367 38.3938 86.6084 38.4985C86.7279 38.6919 86.8713 38.8691 87.0386 39.0383C87.3254 39.3284 87.6759 39.5701 88.0662 39.7312C88.4407 39.8843 88.847 39.9729 89.2692 39.9729C89.6914 39.9729 90.0977 39.8843 90.4801 39.7312C90.8545 39.5701 91.1971 39.3445 91.4839 39.0625L91.5078 39.0383C91.7945 38.7483 92.0335 38.3938 92.1929 37.999C92.3442 37.6204 92.4319 37.2095 92.4319 36.7744C92.4319 36.3394 92.3442 35.9285 92.1929 35.5498C92.0335 35.1711 91.8105 34.8247 91.5237 34.5347L91.5078 34.5105C91.221 34.2205 90.8864 33.9868 90.504 33.8257L90.4801 33.8176C90.1057 33.6646 89.6994 33.5759 89.2692 33.5759C88.847 33.5759 88.4327 33.6646 88.0583 33.8176C87.6839 33.9788 87.3413 34.2043 87.0545 34.4863L87.0306 34.5105C86.8792 34.6636 86.7438 34.8328 86.6164 35.0261C86.5526 35.1228 86.4969 35.2195 86.4491 35.3242H80.8566C80.4662 35.3242 80.1157 35.4854 79.8608 35.7432C79.6059 35.9929 79.4465 36.3474 79.4465 36.7422ZM38.953 50.5674C39.1044 50.946 39.192 51.3569 39.192 51.792C39.192 52.2271 39.1044 52.6379 38.953 53.0166C38.7937 53.3953 38.5707 53.7417 38.2839 54.0237L38.2679 54.0479C38.1086 54.209 37.9254 54.3621 37.7262 54.4829C37.6226 54.5474 37.5111 54.6118 37.3916 54.6682V59.752H42.6096V60.0017C42.6096 60.1951 42.6176 60.3965 42.6256 60.606C42.6415 60.7832 42.5618 60.9604 42.4105 61.0732C41.7254 61.5647 41.1119 62.0803 40.5543 62.604H35.9975C35.6071 62.604 35.2566 62.4429 35.0017 62.1851C34.7468 61.9272 34.5874 61.5728 34.5874 61.178V54.6199C34.4918 54.5715 34.3962 54.5151 34.3006 54.4507C34.1333 54.3379 33.974 54.209 33.8306 54.064L33.8067 54.0398C33.5199 53.7498 33.2809 53.3953 33.1216 53.0005C32.9702 52.6218 32.8826 52.2109 32.8826 51.7759C32.8826 51.3569 32.9623 50.9541 33.1136 50.5754L33.1216 50.5513C33.2809 50.1565 33.5199 49.8101 33.8067 49.512C34.0935 49.2219 34.444 48.9802 34.8344 48.8191C35.2088 48.666 35.6151 48.5774 36.0453 48.5774C36.4675 48.5774 36.8738 48.666 37.2562 48.8191C37.6465 48.9802 37.9971 49.2219 38.2839 49.512C38.5547 49.8181 38.7937 50.1726 38.953 50.5674ZM29.9987 66.8821H37.4872C37.3597 67.1721 37.2482 67.4702 37.1447 67.7603C36.9216 68.4128 36.7623 69.0654 36.6667 69.7261H29.9987C29.943 69.8308 29.8872 69.9355 29.8235 70.0403C29.704 70.2336 29.5606 70.4109 29.4092 70.564C29.1145 70.8621 28.7719 71.0957 28.3816 71.2568C28.0071 71.4099 27.6008 71.4985 27.1707 71.4985C26.7564 71.4985 26.3581 71.418 25.9836 71.2649L25.9597 71.2568C25.5694 71.0957 25.2268 70.854 24.9321 70.564C24.6453 70.2739 24.4063 69.9194 24.247 69.5247C24.0956 69.146 24.008 68.7351 24.008 68.3C24.008 67.873 24.0956 67.4622 24.247 67.0754C24.4063 66.6807 24.6453 66.3262 24.9321 66.0361C25.2189 65.7461 25.5694 65.5044 25.9597 65.3433C26.3342 65.1902 26.7405 65.1016 27.1707 65.1016C27.5849 65.1016 27.9832 65.1821 28.3577 65.3352L28.3816 65.3433C28.7719 65.5044 29.1145 65.7461 29.4092 66.0361C29.5606 66.1892 29.696 66.3584 29.8155 66.5437L29.8314 66.5679C29.8872 66.6726 29.943 66.7773 29.9987 66.8821ZM27.322 74.6809H37.065C37.3677 75.6558 37.8059 76.5984 38.3635 77.4927V77.5007L38.3795 77.533H28.7241V86.8384C28.8038 86.8867 28.8834 86.9351 28.9631 86.9915C29.1224 87.1042 29.2658 87.2251 29.4013 87.3621C29.6881 87.6521 29.927 88.0066 30.0864 88.4014C30.2377 88.78 30.3254 89.1909 30.3254 89.626C30.3254 90.053 30.2377 90.4719 30.0864 90.8506C29.927 91.2454 29.6881 91.5918 29.4013 91.8899C29.1145 92.1799 28.7639 92.4216 28.3736 92.5828C27.9992 92.7358 27.5929 92.8245 27.1627 92.8245C26.7405 92.8245 26.3342 92.7358 25.9518 92.5828C25.5614 92.4216 25.2109 92.1799 24.9241 91.8899C24.6373 91.5757 24.3983 91.2212 24.239 90.8345C24.0876 90.4558 24 90.0449 24 89.6099C24 89.1909 24.0797 88.7881 24.231 88.4094L24.239 88.3853C24.3983 87.9905 24.6373 87.644 24.9241 87.3459C25.0994 87.1687 25.3065 87.0076 25.5216 86.8706C25.6411 86.7981 25.7765 86.7256 25.904 86.6692V76.0989C25.904 75.7041 26.0633 75.3496 26.3182 75.0918C26.5811 74.842 26.9317 74.6809 27.322 74.6809ZM38.3715 81.5613H41.0004C40.9128 82.093 40.865 82.6167 40.8491 83.1323C40.8331 83.5674 40.8411 83.9944 40.873 84.4133H39.7816V88.6189C39.8931 88.6753 39.9966 88.7317 40.1002 88.8042C40.2914 88.925 40.4667 89.0701 40.634 89.2393C40.9208 89.5293 41.1597 89.8838 41.3191 90.2786C41.4704 90.6572 41.5581 91.0681 41.5581 91.5032C41.5581 91.9382 41.4704 92.3411 41.3191 92.7278C41.1597 93.1064 40.9367 93.4529 40.6579 93.7429L40.634 93.7671C40.3472 94.0571 39.9966 94.2988 39.6063 94.46C39.2319 94.613 38.8256 94.7017 38.3954 94.7017C37.9652 94.7017 37.5589 94.613 37.1845 94.46C36.8101 94.2988 36.4675 94.0732 36.1807 93.7832L36.1568 93.7671C35.87 93.4771 35.639 93.1387 35.4797 92.752L35.4717 92.7278C35.3203 92.3491 35.2327 91.9382 35.2327 91.5032C35.2327 91.0762 35.3203 90.6572 35.4717 90.2786C35.631 89.8999 35.8541 89.5535 36.1329 89.2634L36.1568 89.2393C36.3082 89.0862 36.4755 88.9492 36.6667 88.8203C36.7623 88.7559 36.8579 88.6995 36.9614 88.6511V82.9954C36.9614 82.6006 37.1208 82.2461 37.3757 81.9883C37.6306 81.7144 37.9811 81.5613 38.3715 81.5613ZM76.6025 115.141V103.87C75.6067 103.556 74.6667 103.048 73.8063 102.331L73.7904 102.315V115.149C73.6868 115.206 73.5832 115.262 73.4797 115.327C73.2885 115.448 73.1132 115.593 72.9618 115.746C72.6751 116.044 72.4361 116.39 72.2767 116.785C72.1254 117.164 72.0377 117.574 72.0377 118.01C72.0377 118.428 72.1174 118.831 72.2688 119.21L72.2767 119.234C72.4361 119.629 72.6751 119.975 72.9618 120.273C73.2486 120.563 73.5992 120.805 73.9895 120.966C74.3639 121.119 74.7702 121.208 75.2004 121.208C75.6226 121.208 76.0289 121.119 76.4113 120.966C76.8017 120.805 77.1522 120.563 77.439 120.273C77.7258 119.983 77.9648 119.629 78.1241 119.234C78.2755 118.855 78.3631 118.445 78.3631 118.01C78.3631 117.591 78.2834 117.188 78.1321 116.809L78.1241 116.785C77.9648 116.39 77.7258 116.044 77.439 115.746C77.2876 115.593 77.1203 115.456 76.9371 115.335L76.9132 115.319C76.8096 115.254 76.7061 115.198 76.6025 115.141ZM68.891 117.848V101.606C68.5564 101.953 68.2059 102.259 67.8394 102.541C67.2738 102.976 66.6843 103.322 66.0709 103.596V116.438H56.8696C56.8218 116.358 56.774 116.277 56.7182 116.197C56.6067 116.036 56.4872 115.891 56.3518 115.754C56.065 115.464 55.7145 115.222 55.3241 115.061C54.9497 114.908 54.5434 114.819 54.1132 114.819C53.691 114.819 53.2767 114.908 52.9023 115.061C52.5119 115.222 52.1694 115.464 51.8746 115.754C51.5878 116.044 51.3488 116.398 51.1895 116.793C51.0382 117.172 50.9505 117.583 50.9505 118.018C50.9505 118.445 51.0382 118.855 51.1895 119.242C51.3488 119.637 51.5878 119.991 51.8746 120.281C52.1614 120.572 52.5119 120.813 52.9023 120.974C53.2767 121.127 53.683 121.216 54.1132 121.216C54.5275 121.216 54.9258 121.135 55.3002 120.982L55.3241 120.974C55.7145 120.813 56.057 120.572 56.3518 120.281C56.527 120.104 56.6864 119.895 56.8218 119.677C56.8935 119.556 56.9652 119.419 57.021 119.291H67.473C67.8633 119.291 68.2138 119.129 68.4688 118.872C68.7317 118.598 68.891 118.243 68.891 117.848ZM62.0876 106.674V104.329C61.4662 104.297 60.8449 104.2 60.2394 104.047C59.9128 103.967 59.5862 103.862 59.2675 103.749V105.256H55.109C55.0532 105.143 54.9975 105.038 54.9258 104.934C54.8063 104.74 54.6629 104.563 54.4956 104.394C54.2088 104.104 53.8583 103.862 53.4679 103.701C53.0935 103.548 52.6872 103.459 52.265 103.459C51.8428 103.459 51.4365 103.548 51.0541 103.701C50.6797 103.862 50.3371 104.088 50.0503 104.37L50.0264 104.386C49.7396 104.676 49.5006 105.03 49.3413 105.425C49.1899 105.804 49.1023 106.215 49.1023 106.65C49.1023 107.085 49.1899 107.496 49.3413 107.874C49.5006 108.253 49.7237 108.599 50.0105 108.889L50.0264 108.914C50.3132 109.204 50.6478 109.437 51.0302 109.598L51.0541 109.606C51.4285 109.76 51.8348 109.848 52.265 109.848C52.6872 109.848 53.0935 109.76 53.4759 109.606C53.8503 109.445 54.1929 109.22 54.4797 108.938L54.5036 108.914C54.6549 108.76 54.7904 108.591 54.9178 108.398C54.9816 108.301 55.0373 108.205 55.0851 108.1H60.6776C61.0679 108.1 61.4184 107.939 61.6734 107.681C61.9283 107.423 62.0876 107.069 62.0876 106.674Z" fill="black"/>
</g>
<defs>
<clipPath id="clip0_82_262">
<rect width="95" height="99" fill="white" transform="translate(24 22.208)"/>
</clipPath>
</defs>
</svg>
